inDegrees=no
num_controls=7
num_derivatives=13
num_iterations=116
num_multipliers=7
num_parameters=0
num_slacks=7
num_states=26
objective=0.472188
objective_accelerations=0.058057
objective_balance=0.006272
objective_effort=0.049460
objective_height=0.352534
objective_ligament=0.005866
solver_duration=1750.283135
status=Solve_Succeeded
success=true
DataType=double
version=3
OpenSimVersion=4.5
endheader
time	/jointset/ground_pelvis/pelvis_tilt/value	/jointset/ground_pelvis/pelvis_tx/value	/jointset/ground_pelvis/pelvis_ty/value	/jointset/hip_l/hip_flexion_l/value	/jointset/hip_l/hip_adduction_l/value	/jointset/hip_l/hip_rotation_l/value	/jointset/back/lumbar_extension/value	/jointset/patellofemoral_l/patellar_flexion_l/value	/jointset/knee_l/knee_flexion_l/value	/jointset/knee_l/knee_adduction_l/value	/jointset/knee_l/knee_rotation_l/value	/jointset/ankle_l/ankle_angle_l/value	/jointset/subtalar_l/subtalar_angle_l/value	/jointset/ground_pelvis/pelvis_tilt/speed	/jointset/ground_pelvis/pelvis_tx/speed	/jointset/ground_pelvis/pelvis_ty/speed	/jointset/hip_l/hip_flexion_l/speed	/jointset/hip_l/hip_adduction_l/speed	/jointset/hip_l/hip_rotation_l/speed	/jointset/back/lumbar_extension/speed	/jointset/patellofemoral_l/patellar_flexion_l/speed	/jointset/knee_l/knee_flexion_l/speed	/jointset/knee_l/knee_adduction_l/speed	/jointset/knee_l/knee_rotation_l/speed	/jointset/ankle_l/ankle_angle_l/speed	/jointset/subtalar_l/subtalar_angle_l/speed	/forceset/tau_hip_flexion_l	/forceset/tau_hip_adduction_l	/forceset/tau_hip_rotation_l	/forceset/tau_knee_flexion_l	/forceset/tau_ankle_angle_l	/forceset/tau_subtalar_angle_l	/forceset/tau_lumbar_extension	lambda_cid13_p0	lambda_cid13_p1	lambda_cid13_p2	lambda_cid13_p3	lambda_cid13_p4	lambda_cid13_p5	lambda_cid14_p0	/jointset/ground_pelvis/pelvis_tilt/accel	/jointset/ground_pelvis/pelvis_tx/accel	/jointset/ground_pelvis/pelvis_ty/accel	/jointset/hip_l/hip_flexion_l/accel	/jointset/hip_l/hip_adduction_l/accel	/jointset/hip_l/hip_rotation_l/accel	/jointset/back/lumbar_extension/accel	/jointset/patellofemoral_l/patellar_flexion_l/accel	/jointset/knee_l/knee_flexion_l/accel	/jointset/knee_l/knee_adduction_l/accel	/jointset/knee_l/knee_rotation_l/accel	/jointset/ankle_l/ankle_angle_l/accel	/jointset/subtalar_l/subtalar_angle_l/accel	gamma_cid13_p0	gamma_cid13_p1	gamma_cid13_p2	gamma_cid13_p3	gamma_cid13_p4	gamma_cid13_p5	gamma_cid14_p0
1.5	-0.2866005088998476	-0.02663617691227899	0.7676290055936421	1.144522579006366	-0.1387987963414001	-0.01292873237484013	-0.3320237169029385	0.8725992867166998	0.8725992867166799	0.1543742945125594	-0.01785125184439169	0.2259533505859692	0.2014781688164929	0.3530947262628024	0.1141664430452497	0.5427529044596733	-2.026784809064198	0.2068451105067728	0.08326022849494252	0.5874452568016402	-2.235935427626814	-2.23593542762672	-0.009089982472551333	-0.4335737129008316	-0.6651266401342051	-0.01689838589912713	-0.164691891888658	-0.04751595639315856	-0.01765769339875204	-0.2914965848979378	0.06260162640786961	0.1453653942534972	0.1740532470975024	-6.781567165734685	-54.98810272568129	0.4179815061550799	-2.104811756441802	-601.2102020366118	-147.8730389043826	-16.62293897315842	0.5702713365587728	0.5550521486362152	-0.506162081965942	-1.273893277149682	-0.183596193801274	0.5320203757565251	1.529104179150412	-1.441319556089227	-1.441319556089226	0.459324484699673	-0.200005998625546	-0.8848530120567656	-0.665505110964575	1.62785899116965e-07	-9.89857877060204e-07	-1.415489766184658e-06	-1.317710264775904e-07	5.194253814178771e-09	-5.219766547769932e-07	1.070964657874328e-07
1.51	-0.2830415231957403	-0.02546689533347865	0.773030026596213	1.124193737252478	-0.1367402036270914	-0.01206754964497319	-0.3260738550557101	0.8501712783232018	0.8501712783232109	0.1543049310475989	-0.02219764756333835	0.2192588741598825	0.2012756514444016	0.3586418214861464	0.1196737172238636	0.5373329570922419	-2.038696827847448	0.2048155333981613	0.08897485933389754	0.6024325403512923	-2.249342338608123	-2.249342338608075	-0.004773943299844041	-0.4356418551249428	-0.6736589624115094	-0.02361381009151085	-0.1585821773662368	-0.0494951196741743	-0.01618310847537266	-0.2881180901604364	0.06436163716073785	0.1478086447885788	0.1687907556207736	-5.735852415221082	-55.98350095966538	0.2924823158292071	-2.569191256224592	-596.4770930434835	-149.3255893132965	-17.94244005226399	0.5378681535678342	0.546115090445805	-0.577659015048115	-1.106818889032217	-0.2210460554996342	0.5910366389927433	1.469354598958694	-1.241810578525115	-1.241810578532003	0.4188713738617115	-0.2004318087075158	-0.820988527694603	-0.6755538186288981	1.606433598292836e-07	-9.889866363727885e-07	-1.37464913910178e-06	-1.327088796418433e-07	1.131432553451973e-08	-4.782118065177144e-07	1.043236963147271e-07
1.52	-0.2794288786317298	-0.02424303100529781	0.7783732985349262	1.103754382768735	-0.1347035882010891	-0.01114925016651373	-0.3199769575417679	0.8276189140780165	0.8276189140780518	0.1542789535224256	-0.02656276739941087	0.2124823611725968	0.2010057812813356	0.3638264982433147	0.1250829929213496	0.5312030916881577	-2.048887355035483	0.2024496528452094	0.09468357821396266	0.616852390144388	-2.260806597964366	-2.260806597964364	-0.0004127945149187409	-0.4373185363251978	-0.6815339523739072	-0.03036894409404024	-0.1524724628438137	-0.05147428295519741	-0.01470852355201153	-0.2847395954229382	0.06612164791360546	0.1502518953236509	0.1635282641440463	-4.702379999169322	-56.96274412396839	0.1484041217172937	-3.018231494807914	-591.8502596849645	-150.7648041215042	-19.25279733880244	0.4977876433236443	0.5354524524106731	-0.6481456892964864	-0.9295949581068599	-0.2508568826693465	0.5308379839785489	1.415617427839104	-1.052789231075915	-1.052789231075923	0.4683464071432699	-0.1217137938543357	-0.7533865490754778	-0.6734470729937099	1.546596236779119e-07	-9.589993293373498e-07	-1.303861928065977e-06	-1.315039609627234e-07	2.340152827281943e-08	-4.208729615978459e-07	9.84325654326387e-08
1.53	-0.2757662457103066	-0.0229656372004226	0.7836518029852172	1.083221780318209	-0.132692305721703	-0.01017422100594149	-0.3137388846247957	0.8049616351155376	0.8049616351156016	0.1542969625004837	-0.03094253695225893	0.2056304384787137	0.200668211032014	0.3686330063712822	0.130372067133773	0.5243864185643452	-2.057334030148881	0.199749377532337	0.1003167297367231	0.6306511478259981	-2.270313193474041	-2.270313193473844	0.004012569932822298	-0.4385702608130171	-0.6887333392914415	-0.03714884599259172	-0.1462752065250745	-0.05358483298557493	-0.01315806826652286	-0.2814783071249413	0.06792860285983945	0.1527803579099235	0.1581790688527303	-3.661282045874395	-57.96554218697411	-0.00881110223120068	-3.437987216709621	-587.3572608004986	-152.2799193671972	-20.55067544191012	0.4620437328575252	0.522054535997892	-0.7151247559888595	-0.7573124056942019	-0.2879885388437805	0.5787835505441248	1.345348124713146	-0.8492114124437788	-0.8492114124144883	0.4291558357873695	-0.1169287136418639	-0.6856451262359725	-0.6805512467839196	1.445946158588692e-07	-8.980762018071365e-07	-1.201256471580191e-06	-1.2802234720002e-07	4.182880771770023e-08	-3.491117452261013e-07	8.922817555308133e-08
1.54	-0.2720575554405382	-0.02163606872735522	0.7888588013778569	1.062613689393002	-0.1307097011320938	-0.009143014367319882	-0.3073661554937291	0.7822193668576567	0.7822193668577475	0.1543591299974561	-0.03533282913746839	0.1987100358430262	0.2002627838640073	0.3730379679122179	0.1355179265597832	0.5169018801579267	-2.063985049971798	0.1967140748895613	0.105919073824257	0.6437836329632555	-2.277804457044935	-2.277804457044543	0.008418909268477345	-0.439423062796681	-0.6952299407347182	-0.04394032783106571	-0.1400779502063343	-0.05569538301595792	-0.01160761298106029	-0.2782170188269485	0.06973555780607307	0.1553088204961894	0.1528298735614153	-2.631377522294052	-58.95230472660456	-0.1846596374220097	-3.846051396655449	-582.9539609955714	-153.7785195542421	-21.83346384604371	0.4174783259172914	0.5068094951280383	-0.7817187458176655	-0.5704639000106659	-0.3178623486500116	0.5246764969332316	1.282362918968549	-0.6497228433197333	-0.6497228433197281	0.4645413847260665	-0.04192929302325091	-0.6128294542239644	-0.6757630609782121	1.30902037467759e-07	-8.117524018896825e-07	-1.086520311565608e-06	-1.213320594250043e-07	6.267540648911359e-08	-2.708980777020926e-07	7.821502480197016e-08
